<?xml version="1.0" standalone="no"?>
<!DOCTYPE svg PUBLIC "-//W3C//DTD SVG 20010904//EN"
 "http://www.w3.org/TR/2001/REC-SVG-20010904/DTD/svg10.dtd">
<svg version="1.0" xmlns="http://www.w3.org/2000/svg"
 width="307.000000pt" height="203.000000pt" viewBox="0 0 307.000000 203.000000"
 preserveAspectRatio="xMidYMid meet">

<g transform="translate(0.000000,203.000000) scale(0.100000,-0.100000)"
fill="#000000" stroke="none">
<path d="M570 1329 c-34 -14 -70 -49 -70 -69 0 -10 9 -29 20 -43 11 -14 20
-31 21 -39 0 -7 4 -4 8 7 6 14 3 24 -10 33 -29 20 -24 42 11 42 17 0 30 -4 30
-10 0 -5 7 -10 15 -10 8 0 15 5 15 10 0 6 -5 10 -12 10 -9 0 -9 3 -1 11 8 8
19 8 42 -2 34 -15 41 -42 14 -58 -17 -10 -17 -10 -1 -11 10 0 24 13 33 30 19
36 19 40 0 40 -9 0 -20 11 -26 24 -9 19 -50 49 -62 45 -1 0 -13 -5 -27 -10z"/>
<path d="M625 1148 c-8 -19 -45 -25 -45 -8 0 6 -7 10 -15 10 -8 0 -15 -6 -15
-14 0 -8 -6 -17 -12 -19 -9 -4 -9 -6 -1 -6 8 -1 8 -10 0 -37 -9 -31 -9 -37 6
-46 20 -11 13 -30 -8 -21 -16 6 -20 -12 -16 -79 2 -24 -2 -38 -9 -38 -9 0 -9
-4 -3 -12 6 -7 13 -25 17 -40 3 -14 8 -33 12 -41 3 -9 -3 -16 -15 -20 -12 -3
-21 -12 -21 -21 0 -14 15 -16 94 -16 99 0 121 9 85 33 -19 14 -20 18 -7 63 7
27 12 77 10 112 -3 54 -6 62 -22 62 -23 0 -27 15 -5 23 11 5 12 12 4 35 -5 16
-9 33 -8 38 1 5 -3 20 -8 34 -10 22 -12 23 -18 8z m-5 -42 c0 -16 -14 -36 -26
-36 -8 0 -14 2 -14 4 0 2 -3 11 -6 20 -5 12 0 16 20 16 14 0 26 -2 26 -4z
m-10 -85 c0 -6 -4 -13 -10 -16 -5 -3 -10 1 -10 9 0 9 5 16 10 16 6 0 10 -4 10
-9z"/>
<path d="M1096 1153 c-3 -3 -6 -31 -6 -62 -1 -31 -5 -76 -11 -101 -6 -25 -13
-58 -16 -74 l-6 -29 62 6 c34 4 70 11 80 17 24 12 51 70 51 108 0 54 -125 164
-154 135z m94 -104 c27 -49 -8 -118 -47 -93 -14 9 -17 22 -14 65 1 30 5 57 8
62 6 11 41 -11 53 -34z"/>
<path d="M1396 1147 c-14 -10 -22 -40 -33 -130 -9 -65 -13 -121 -9 -124 9 -9
74 -8 109 1 26 6 67 65 67 94 0 9 -7 25 -15 36 -12 16 -12 22 2 42 18 28 13
47 -19 67 -36 23 -81 29 -102 14z m71 -63 c7 -20 -21 -49 -40 -41 -22 8 -10
57 14 57 11 0 22 -7 26 -16z m3 -102 c0 -49 -62 -71 -68 -24 -2 16 3 25 20 31
35 15 48 13 48 -7z"/>
<path d="M2231 1135 c-12 -26 -32 -228 -23 -236 4 -4 31 -9 60 -13 43 -6 52
-4 52 9 0 9 -16 25 -36 37 -22 13 -33 26 -30 35 3 8 6 17 6 19 0 2 15 4 33 4
20 0 41 8 50 18 20 21 13 32 -19 32 -37 0 -54 11 -54 35 0 18 7 24 40 29 25 4
40 12 40 21 0 20 -16 27 -65 29 -35 1 -46 -2 -54 -19z"/>
<path d="M2399 1145 c-36 -19 -42 -41 -19 -63 15 -14 20 -34 22 -102 3 -79 5
-85 25 -88 26 -4 29 6 37 118 3 41 10 76 16 78 6 2 15 12 20 23 9 15 5 21 -19
34 -36 18 -48 18 -82 0z"/>
<path d="M1559 1134 c-9 -11 -15 -48 -18 -106 -4 -103 9 -128 64 -128 17 0 36
-5 42 -11 8 -8 17 -7 32 3 16 10 21 23 21 56 0 24 8 72 17 106 18 70 14 96
-16 96 -16 0 -24 -12 -36 -57 -24 -87 -36 -113 -51 -113 -11 0 -14 17 -14 68
0 40 -5 75 -13 86 -12 17 -14 17 -28 0z"/>
<path d="M1810 1134 c0 -9 -14 -57 -30 -107 -45 -132 -46 -130 78 -135 65 -2
102 0 102 7 0 20 -45 41 -88 41 -56 0 -61 14 -34 106 28 95 28 104 -3 104 -16
0 -25 -6 -25 -16z"/>
<path d="M2035 1138 c-2 -7 -9 -38 -16 -68 -6 -30 -20 -72 -31 -92 -10 -22
-16 -48 -13 -61 6 -21 12 -22 105 -25 56 -1 101 2 104 7 11 18 -38 41 -86 41
-26 0 -49 4 -52 9 -3 4 6 47 20 95 13 48 22 91 19 96 -9 14 -45 12 -50 -2z"/>
<path d="M2557 1143 c-4 -3 -7 -15 -7 -26 0 -15 5 -18 26 -14 l26 5 -7 -57
c-12 -98 -14 -102 -49 -99 -25 2 -32 -1 -34 -18 -3 -18 5 -24 45 -35 75 -20
142 -5 93 21 -21 11 -22 17 -16 68 10 86 16 100 42 106 26 7 31 25 12 44 -13
13 -120 17 -131 5z"/>
<path d="M2845 1133 c-5 -10 -10 -31 -12 -46 -2 -16 -8 -39 -13 -50 -8 -21 -8
-21 -19 6 -6 16 -11 39 -11 53 0 27 -30 34 -48 11 -17 -20 -45 -198 -34 -209
16 -16 29 -2 36 37 8 43 30 46 45 5 15 -45 45 -40 71 14 17 35 20 59 18 117
-3 72 -17 98 -33 62z"/>
<path d="M475 1059 c-4 -6 -5 -12 -2 -15 2 -3 7 2 10 11 7 17 1 20 -8 4z"/>
<path d="M703 946 c1 -16 9 -32 17 -34 12 -4 13 -2 4 9 -7 8 -14 23 -17 34 -4
13 -5 9 -4 -9z"/>
<path d="M477 933 c-4 -3 -7 -11 -7 -17 0 -6 5 -5 12 2 6 6 9 14 7 17 -3 3 -9
2 -12 -2z"/>
</g>
</svg>
